<svg width="172" height="172" fill="none" xmlns="http://www.w3.org/2000/svg">
  <path fill-rule="evenodd" clip-rule="evenodd" d="M112.664 18.847c0 1.4 5.996 15.103 15.089 46.806 9.094 31.703 16.436 60.204 17.581 65.961 1.38-.079 9.06-17.758 14.001-36.692 3.879-14.867 5.31-30.418 5.798-39.429 1.111-20.488 1.111-36.646 1.111-36.646h-53.58z" fill="url(#paint0_linear)"/>
  <path fill-rule="evenodd" clip-rule="evenodd" d="M59.336 18.847c0 1.4-5.996 15.103-15.09 46.806-9.093 31.703-16.435 60.204-17.58 65.961-1.38-.079-9.06-17.758-14-36.692-3.88-14.867-5.31-30.418-5.8-39.429-1.11-20.488-1.11-36.646-1.11-36.646h53.58z" fill="url(#paint1_linear)"/>
  <path d="M64.697 99.579l21.262-26.606V0l21.44 99.579H64.697z" fill="#2A68A6"/>
  <path d="M64.697 99.579L85.959 0v72.973L64.697 99.579z" fill="#4183C4"/>
  <path d="M60.68 122.035h50.757L85.446 172 60.68 122.035z" fill="#2A68A6"/>
  <path d="M60.68 122.035l-6.336 26.119L85.447 172 60.68 122.035z" fill="#4183C4"/>
  <path d="M85.446 172l32.06-23.691-6.224-26.274L85.446 172z" fill="#4183C4"/>
  <defs>
    <linearGradient id="paint0_linear" x1="86" y1="18.8473" x2="86" y2="131.614" gradientUnits="userSpaceOnUse">
      <stop stop-color="#5693D0"/>
      <stop offset="1" stop-color="#2A68A6"/>
    </linearGradient>
    <linearGradient id="paint1_linear" x1="86" y1="18.8473" x2="86" y2="131.614" gradientUnits="userSpaceOnUse">
      <stop stop-color="#5693D0"/>
      <stop offset="1" stop-color="#2A68A6"/>
    </linearGradient>
  </defs>
</svg>