<svg width="306" height="50" fill="none" xmlns="http://www.w3.org/2000/svg">
  <g clip-path="url(#clip0)">
    <g filter="url(#filter0_d)">
      <path d="M24.778 48.174c12.856 0 23.278-10.316 23.278-23.04 0-12.725-10.422-23.04-23.278-23.04C11.922 2.094 1.5 12.409 1.5 25.134c0 12.724 10.422 23.04 23.278 23.04z" fill="#ffffff"/>
      <path fill-rule="evenodd" clip-rule="evenodd" d="M28.702 15.672c0 .21.9 2.267 2.265 7.026 1.364 4.759 2.466 9.037 2.638 9.901.207-.012 1.36-2.665 2.102-5.508.582-2.231.797-4.566.87-5.918.167-3.076.167-5.501.167-5.501h-8.042z" fill="url(#paint0_linear)"/>
      <path fill-rule="evenodd" clip-rule="evenodd" d="M20.698 15.672c0 .21-.9 2.267-2.265 7.026-1.364 4.759-2.466 9.037-2.638 9.901-.207-.012-1.36-2.665-2.102-5.508-.582-2.231-.796-4.566-.87-5.918-.167-3.076-.167-5.501-.167-5.501h8.042z" fill="url(#paint1_linear)"/>
      <path d="M21.503 27.79l3.19-3.993V12.843l3.219 14.947h-6.41z" fill="#2A68A6"/>
      <path d="M21.503 27.79l3.19-14.947v10.954l-3.19 3.993z" fill="#4183C4"/>
      <path d="M20.9 31.161h7.618l-3.901 7.5-3.717-7.5z" fill="#2A68A6"/>
      <path d="M20.9 31.161l-.951 3.92 4.668 3.58-3.717-7.5zM24.617 38.661l4.812-3.556-.934-3.944-3.878 7.5z" fill="#4183C4"/>
    </g>
    <path d="M72.038 20.128H65.2l.02 12.05h-2.522V17.882h9.358l-.02 2.246z" fill="url(#paint2_linear)"/>
    <path d="M80.568 28.87h-6.895l-1.265 3.308h-2.64l6.111-14.296h2.522l5.874 14.296h-2.68l-1.027-3.309zm-.847-2.084l-2.6-6.25-2.581 6.25h5.181z" fill="url(#paint3_linear)"/>
    <path d="M97.423 17.882l-5.82 11.539c-.526 1.02-1.156 1.79-1.892 2.307a4.047 4.047 0 01-2.364.756c-.683 0-1-.146-1.67-.446l.631-2.083c.539.177.625.262.98.262.827 0 1.51-.442 2.049-1.327l.216-.348-5.278-10.66h2.739l3.86 8.393 4.027-8.393h2.522z" fill="url(#paint4_linear)"/>
    <path d="M108.115 20.128h-6.836l.02 12.05h-2.522V17.882h9.358l-.02 2.246z" fill="url(#paint5_linear)"/>
    <path d="M121.2 17.882v14.296h-2.561V26.05h-6.499v6.127h-2.561V17.882h2.561v5.902h6.499v-5.902h2.561z" fill="url(#paint6_linear)"/>
    <path opacity="0.15" d="M129.63 16.768a.566.566 0 10-1.133 0v16.714a.567.567 0 001.133 0V16.769z" fill="#000"/>
    <path d="M147.714 17.882l-5.906 11.956c-.421.853-.916 1.49-1.486 1.909a3.052 3.052 0 01-1.839.608c-.495 0-1.027-.128-1.597-.385l.39-1.218c.446.19.854.284 1.226.284.854 0 1.554-.507 2.099-1.522l.371-.69-5.275-10.942h1.468l4.531 9.622 4.643-9.622h1.375zM156.302 22.702v9.653h-1.319v-4.019c-1.126.49-2.234.735-3.324.735-1.176 0-2.093-.264-2.749-.79-.656-.538-.984-1.34-.984-2.404v-3.175h1.319v3.102c0 .722.235 1.272.705 1.651.471.368 1.121.551 1.95.551.917 0 1.944-.239 3.083-.716v-4.588h1.319zM167.569 27.933h-8.172c.074 1.003.464 1.817 1.17 2.44.706.612 1.597.918 2.674.918.607 0 1.164-.104 1.672-.312.508-.22.947-.538 1.319-.954l.742.844a4.165 4.165 0 01-1.634 1.175c-.644.269-1.356.403-2.136.403-1.003 0-1.894-.208-2.674-.624a4.68 4.68 0 01-1.802-1.762c-.433-.746-.65-1.59-.65-2.532s.205-1.787.613-2.533a4.564 4.564 0 011.709-1.743c.73-.416 1.547-.624 2.451-.624.904 0 1.715.208 2.433.624a4.428 4.428 0 011.69 1.743c.409.734.613 1.579.613 2.533l-.018.404zm-4.718-4.185c-.941 0-1.733.3-2.377.9-.631.587-.99 1.358-1.077 2.312h6.927c-.086-.954-.452-1.725-1.095-2.313-.632-.6-1.424-.899-2.378-.899zM174.221 22.94c.904 0 1.708.202 2.414.606a4.129 4.129 0 011.672 1.67c.396.71.594 1.524.594 2.441 0 .942-.211 1.78-.632 2.515a4.299 4.299 0 01-1.727 1.688c-.743.404-1.597.606-2.563.606-1.622 0-2.878-.563-3.77-1.689-.891-1.125-1.337-2.68-1.337-4.661 0-2.068.396-3.653 1.188-4.754.805-1.1 2.056-1.847 3.752-2.239l4.383-.99.223 1.192-4.123.936c-1.399.306-2.427.85-3.083 1.634-.656.77-1.015 1.914-1.077 3.431a4.338 4.338 0 011.653-1.743c.705-.428 1.516-.642 2.433-.642zm-.205 8.443c.681 0 1.288-.153 1.821-.459a3.265 3.265 0 001.262-1.321c.31-.563.465-1.2.465-1.909 0-.71-.149-1.334-.446-1.872a3.081 3.081 0 00-1.263-1.248c-.532-.306-1.145-.459-1.839-.459-.693 0-1.312.153-1.857.459-.532.294-.953.71-1.263 1.248-.297.538-.445 1.162-.445 1.872 0 .71.148 1.346.445 1.909.31.563.737 1.003 1.282 1.321a3.687 3.687 0 001.838.459zM180.707 22.702h1.318v4.276h6.148v-4.276h1.319v9.653h-1.319v-4.257h-6.148v4.258h-1.318v-9.654zM195.69 26.116c1.226.012 2.161.281 2.804.807.644.526.966 1.285.966 2.276 0 1.028-.347 1.817-1.04 2.367-.693.551-1.684.82-2.972.808l-3.863-.019v-9.653h1.319v3.377l2.786.037zm5.405-3.414h1.318v9.653h-1.318v-9.653zm-5.721 8.68c.904.013 1.585-.164 2.043-.531.471-.38.706-.93.706-1.652 0-.71-.229-1.236-.687-1.579-.458-.342-1.146-.52-2.062-.532l-2.47-.036v4.294l2.47.037zM204.781 22.702h1.319v7.671l6.519-7.671h1.17v9.653h-1.319v-7.67l-6.5 7.67h-1.189v-9.653zm4.439-1.395c-.842 0-1.511-.208-2.006-.624-.495-.416-.749-1.003-.761-1.762h.947c.012.477.185.863.52 1.157.334.281.767.422 1.3.422.532 0 .966-.141 1.3-.422.347-.294.526-.68.538-1.157h.948c-.013.759-.273 1.346-.78 1.762-.496.416-1.164.624-2.006.624zM223.455 28.061h-2.228v4.294h-1.319v-9.653h1.319v4.24h2.247l3.436-4.24h1.43l-3.845 4.68 4.124 4.973h-1.561l-3.603-4.294zM233.842 32.447c-.941 0-1.789-.208-2.544-.624a4.713 4.713 0 01-1.783-1.762c-.434-.746-.65-1.59-.65-2.532s.216-1.787.65-2.533a4.58 4.58 0 011.783-1.743c.755-.416 1.603-.624 2.544-.624.941 0 1.789.208 2.545.624a4.453 4.453 0 011.764 1.743c.433.747.65 1.59.65 2.533 0 .942-.217 1.786-.65 2.532a4.58 4.58 0 01-1.764 1.762c-.756.416-1.604.624-2.545.624zm0-1.156c.694 0 1.313-.153 1.857-.459a3.324 3.324 0 001.301-1.34c.309-.575.464-1.23.464-1.963 0-.734-.155-1.389-.464-1.964a3.203 3.203 0 00-1.301-1.321c-.544-.319-1.163-.477-1.857-.477-.693 0-1.318.159-1.876.477a3.364 3.364 0 00-1.3 1.321c-.309.575-.464 1.23-.464 1.964s.155 1.389.464 1.963a3.497 3.497 0 001.3 1.34 3.836 3.836 0 001.876.46zM251.518 22.702v9.653h-1.207v-7.634l-3.956 6.46h-.594l-3.956-6.479v7.653h-1.207v-9.653h1.337l4.142 6.956 4.216-6.956h1.225zM263.015 22.702v9.653h-1.318v-8.497h-6.129v8.497h-1.319v-9.653h8.766zM274.002 22.702v9.653h-1.318v-8.497h-4.396l-.13 2.386c-.099 2.007-.334 3.548-.706 4.625-.371 1.077-1.033 1.615-1.987 1.615-.26 0-.447-.03-.818-.129l.093-1.119c.222.049.377.073.464.073.508 0 .763-.25 1.023-.715.26-.465.433-1.04.52-1.726.086-.685.161-1.59.223-2.716l.167-3.45h6.865zM284.999 27.933h-8.172c.074 1.003.464 1.817 1.17 2.44.706.612 1.597.918 2.674.918.607 0 1.164-.104 1.672-.312.508-.22.947-.538 1.319-.954l.743.844a4.175 4.175 0 01-1.635 1.175c-.644.269-1.356.403-2.136.403-1.003 0-1.894-.208-2.674-.624a4.68 4.68 0 01-1.802-1.762c-.433-.746-.65-1.59-.65-2.532s.205-1.787.613-2.533a4.564 4.564 0 011.709-1.743c.73-.416 1.548-.624 2.451-.624.904 0 1.715.208 2.433.624a4.43 4.43 0 011.691 1.743c.408.734.612 1.579.612 2.533l-.018.404zm-4.718-4.185c-.941 0-1.733.3-2.377.9-.631.587-.99 1.358-1.077 2.312h6.928c-.087-.954-.452-1.725-1.096-2.313-.632-.6-1.424-.899-2.378-.899zM290.463 28.061h-2.228v4.294h-1.319v-9.653h1.319v4.24h2.247l3.436-4.24h1.476l-3.891 4.68 4.123 4.973h-1.56l-3.603-4.294zM300.875 32.447c-.966 0-1.833-.208-2.601-.624a4.587 4.587 0 01-1.783-1.743c-.433-.759-.65-1.61-.65-2.551 0-.942.217-1.787.65-2.533a4.587 4.587 0 011.783-1.743c.768-.416 1.635-.624 2.601-.624.842 0 1.591.165 2.247.495.668.318 1.195.79 1.578 1.413l-.984.661a2.996 2.996 0 00-1.226-1.064 3.596 3.596 0 00-1.615-.367c-.706 0-1.344.159-1.913.477a3.32 3.32 0 00-1.319 1.321c-.31.575-.464 1.23-.464 1.964 0 .746.154 1.407.464 1.982a3.482 3.482 0 001.319 1.321c.569.306 1.207.46 1.913.46.581 0 1.12-.117 1.615-.35a2.996 2.996 0 001.226-1.064l.984.66a3.777 3.777 0 01-1.578 1.432c-.669.318-1.418.477-2.247.477z" fill="#24292E"/>
  </g>
  <defs>
    <linearGradient id="paint0_linear" x1="24.7" y1="15.6718" x2="24.7" y2="32.5991" gradientUnits="userSpaceOnUse">
      <stop stop-color="#5693D0"/>
      <stop offset="1" stop-color="#2A68A6"/>
    </linearGradient>
    <linearGradient id="paint1_linear" x1="24.7" y1="15.6718" x2="24.7" y2="32.5991" gradientUnits="userSpaceOnUse">
      <stop stop-color="#5693D0"/>
      <stop offset="1" stop-color="#2A68A6"/>
    </linearGradient>
    <linearGradient id="paint2_linear" x1="201.376" y1="11.357" x2="201.376" y2="40.8283" gradientUnits="userSpaceOnUse">
      <stop stop-color="#5B98D4"/>
      <stop offset="1" stop-color="#2A68A6"/>
    </linearGradient>
    <linearGradient id="paint3_linear" x1="201.376" y1="11.357" x2="201.376" y2="40.8283" gradientUnits="userSpaceOnUse">
      <stop stop-color="#5B98D4"/>
      <stop offset="1" stop-color="#2A68A6"/>
    </linearGradient>
    <linearGradient id="paint4_linear" x1="201.376" y1="11.357" x2="201.376" y2="40.8283" gradientUnits="userSpaceOnUse">
      <stop stop-color="#5B98D4"/>
      <stop offset="1" stop-color="#2A68A6"/>
    </linearGradient>
    <linearGradient id="paint5_linear" x1="201.376" y1="11.357" x2="201.376" y2="40.8283" gradientUnits="userSpaceOnUse">
      <stop stop-color="#5B98D4"/>
      <stop offset="1" stop-color="#2A68A6"/>
    </linearGradient>
    <linearGradient id="paint6_linear" x1="201.376" y1="11.357" x2="201.376" y2="40.8283" gradientUnits="userSpaceOnUse">
      <stop stop-color="#5B98D4"/>
      <stop offset="1" stop-color="#2A68A6"/>
    </linearGradient>
    <clipPath id="clip0">
      <path fill="#ffffff" d="M0 0h306v50H0z"/>
    </clipPath>
    <filter id="filter0_d" x="0" y="1.09384" width="49.5557" height="49.08" filterUnits="userSpaceOnUse" color-interpolation-filters="sRGB">
      <feFlood flood-opacity="0" result="BackgroundImageFix"/>
      <feColorMatrix in="SourceAlpha" values="0 0 0 0 0 0 0 0 0 0 0 0 0 0 0 0 0 0 127 0"/>
      <feOffset dy="0.5"/>
      <feGaussianBlur stdDeviation="0.75"/>
      <feColorMatrix values="0 0 0 0 0 0 0 0 0 0 0 0 0 0 0 0 0 0 0.15 0"/>
      <feBlend in2="BackgroundImageFix" result="effect1_dropShadow"/>
      <feBlend in="SourceGraphic" in2="effect1_dropShadow" result="shape"/>
    </filter>
  </defs>
</svg>